<svg xmlns="http://www.w3.org/2000/svg" width="48" height="48" viewBox="0 0 24 24"  class="lucide lucide-message-circle-crystal">
  <defs>
    <!-- Background gradient with feathered edges and animation-->
    <radialGradient id="bgGlow" cx="50%" cy="50%" r="50%">
      <stop offset="0%" stop-color="#cceeff" stop-opacity="0.6">
        <animate attributeName="stop-opacity" values="0.6; 0.4; 0.6" dur="3s" repeatCount="indefinite" />
      </stop>
      <stop offset="100%" stop-color="#ffffff" stop-opacity="0" />
    </radialGradient>
    <filter id="glowBlur">
      <feGaussianBlur stdDeviation="1.5" />
    </filter>

    <!-- Facet gradients with more stops -->
    <linearGradient id="facet1" x1="0" y1="0" x2="1" y2="1">
      <stop offset="0%" stop-color="#8fe4ff"/>
      <stop offset="50%" stop-color="#55bbff"/>
      <stop offset="100%" stop-color="#33aaff"/>
    </linearGradient>
    <linearGradient id="facet2" x1="0" y1="1" x2="1" y2="0">
      <stop offset="0%" stop-color="#66ccff"/>
       <stop offset="50%" stop-color="#33aacc"/>
      <stop offset="100%" stop-color="#0099cc"/>
    </linearGradient>
    <linearGradient id="facet3" x1="1" y1="0" x2="0" y2="1">
      <stop offset="0%" stop-color="#99ddff"/>
      <stop offset="50%" stop-color="#66aaff"/>
      <stop offset="100%" stop-color="#3399ff"/>
    </linearGradient>
    <linearGradient id="facet4" x1="1" y1="1" x2="0" y2="0">
      <stop offset="0%" stop-color="#bbf0ff"/>
      <stop offset="50%" stop-color="#77ccff"/>
      <stop offset="100%" stop-color="#44bbff"/>
    </linearGradient>

    <!-- Drop shadow filter (slight tweak) -->
    <filter id="shadow" x="-20%" y="-20%" width="140%" height="140%" >
      <feDropShadow dx="0" dy="2" stdDeviation="2" flood-color="#007bff" flood-opacity="0.3"/>
    </filter>
  </defs>

  <!-- Background glow with blur -->
  <circle cx="12" cy="12" r="10" fill="url(#bgGlow)" filter="url(#glowBlur)" />

  <!-- Message circle stroke -->
  <path d="M7.9 20A9 9 0 1 0 4 16.1L2 22Z" fill="none" stroke="#007bff" stroke-width="1.25" stroke-linecap="round" stroke-linejoin="round"/>

  <!-- Crystal with gradient facets and shadow -->
  <g filter="url(#shadow)">
    <path fill="url(#facet1)" d="M12 5 L15 8 L16 11 L15 15 L12 18 L9 15 L8 11 L9 8 L12 5 Z" stroke="none"/>
    <path fill="url(#facet2)" d="M12 5 L14 8 L12 11 L10 8 L12 5 Z" stroke="none"/>
    <path fill="url(#facet3)" d="M12 11 L15 15 L12 18 L9 15 L12 11 Z" stroke="none"/>
    <path fill="url(#facet4)" d="M14 8 L16 11 L15 15 L14 8 Z" stroke="none"/>
    <path fill="url(#facet1)" d="M9 8 L10 11 L9 15 L8 11 L9 8 Z" stroke="none"/>

   <!--Subtle rotation animation -->
   <animateTransform attributeName="transform" type="rotate" from="0 12 12" to="360 12 12" dur="20s" repeatCount="indefinite"/>
  </g>
</svg>